<svg width="45" height="21" viewBox="0 0 45 21" fill="none" xmlns="http://www.w3.org/2000/svg">
<path d="M30.4013 0.0821533L30.2606 0.84007C30.0431 2.27643 30.1219 2.68737 30.7181 3.22043L31.2938 3.71279L30.6975 6.46145C30.3412 8.10134 29.9044 9.47567 29.6269 9.92731C29.3888 10.3169 29.1112 10.8907 29.0513 11.1989C28.9519 11.5672 28.6144 11.9374 28.0988 12.265C27.6431 12.5325 26.7488 13.2497 26.115 13.8254C25.6088 14.2965 25.26 14.5853 25.0706 14.7094L24.4519 15.2153C24.2928 15.4592 24.1731 15.7283 24.0975 16.012C24.0544 16.2194 24.0788 16.357 24.1425 16.4578C24.205 16.5547 24.31 16.6239 24.4575 16.6652C24.6308 16.7059 24.8088 16.7209 24.9862 16.7098C25.3876 16.6814 25.7849 16.6087 26.1712 16.4927C26.3025 16.4559 26.4056 16.421 26.4956 16.39C26.6344 16.2136 26.955 15.8802 27.5231 15.3006C29.0306 13.7634 29.6062 12.9222 29.0119 13.1489C28.7925 13.2304 28.8919 13.0249 29.2687 12.6139C30.0637 11.8134 30.5194 10.6038 31.4719 6.81036C32.2256 3.81552 32.2256 3.77288 32.7806 3.77288C33.0412 3.77288 33.7781 3.8194 33.7781 3.8194V0.0821533H32.0869H30.4013ZM37.5994 6.21721C37.4794 6.21721 37.2806 6.40329 37.1625 6.60876C36.945 6.97706 37.2019 7.20192 40.4756 9.31478C42.42 10.5883 43.9875 11.6738 43.9481 11.7572C43.9087 11.8173 42.3206 12.8853 40.4175 14.1162C36.9637 16.3299 36.945 16.3512 37.2619 16.8028C37.6594 17.3359 37.2619 17.5201 41.745 14.6279L45 12.4744V10.8539L41.3681 8.53554C39.405 7.26395 37.6987 6.23853 37.5994 6.21721ZM7.44 6.444C7.34062 6.444 5.63438 7.49074 3.67125 8.74101L0 11.0593V12.6799L3.65062 15.0389C5.67563 16.3299 7.38188 17.3979 7.46063 17.3979C7.53938 17.3979 7.69875 17.2118 7.85812 16.987C8.09625 16.5974 7.89563 16.4326 4.54313 14.2383C1.35 12.1662 1.0125 11.8793 1.33125 11.6544C1.53 11.511 3.0375 10.5457 4.665 9.50087C8.37562 7.14183 8.17688 7.30465 7.87875 6.8123C7.76063 6.60877 7.56 6.42462 7.44187 6.444H7.44ZM23.7225 6.48858C23.175 6.48471 21.9975 7.3473 18.4725 10.3228C18.3206 10.6969 18.3075 10.9547 18.3769 11.1214C18.4231 11.2338 18.5037 11.3178 18.6188 11.3734C18.7313 11.4315 18.8775 11.4664 19.0387 11.48C19.3594 11.5091 19.7381 11.4567 20.0437 11.3947L20.25 11.3462C20.3213 11.2491 20.4139 11.1707 20.52 11.1175C20.7375 10.9934 21.6506 10.1328 22.5638 9.2101C24.1706 7.52757 24.5475 6.76771 23.8931 6.52154C23.8401 6.49721 23.7805 6.48593 23.7225 6.48858ZM27.84 7.65744C27.3581 7.67101 26.49 8.24866 25.0031 9.47567C24.2569 10.1018 23.7844 10.4391 23.5312 10.5088L22.5487 11.3113C22.1794 12.0092 22.125 12.4414 22.2225 12.6799C22.2469 12.7387 22.2823 12.7919 22.3267 12.8365C22.3712 12.8811 22.4237 12.9161 22.4812 12.9396C22.6239 13.0003 22.7771 13.0299 22.9312 13.0268C23.2992 13.0223 23.665 12.9669 24.0188 12.8621C24.2028 12.8098 24.3848 12.7503 24.5644 12.6837L24.6187 12.6605L24.7181 12.6062C24.9056 12.3561 25.3369 11.8851 25.8769 11.3424C27.5831 9.64043 28.455 8.43087 28.2769 7.97922C28.1963 7.76018 28.0575 7.64969 27.84 7.65744ZM23.295 9.75092C23.1562 9.76643 22.845 10.0145 22.2844 10.5224C21.4744 11.2629 20.5913 11.6893 20.2856 11.4994L20.0719 11.5459C19.7606 11.6099 19.3725 11.6622 19.0256 11.6331C18.8621 11.6232 18.7019 11.5818 18.5531 11.511C18.413 11.4442 18.3011 11.3271 18.2381 11.1815C18.1688 11.007 18.1688 10.7899 18.2475 10.5127L17.0287 11.5478L14.2706 13.9069V17.7313L23.3081 10.3712C23.3061 10.2906 23.3162 10.2102 23.3381 10.1328C23.4075 9.87304 23.4037 9.74123 23.295 9.75286V9.75092ZM27.1838 10.9896C27.0469 10.9896 26.8181 11.1892 26.4525 11.5905C25.9556 12.139 25.1737 12.6702 24.7594 12.7787L24.6956 12.8136L24.4894 12.895C24.3756 12.9351 24.2331 12.979 24.0619 13.0268C23.7244 13.1218 23.3044 13.209 22.9294 13.1993C22.7524 13.2007 22.577 13.1651 22.4138 13.0947C22.259 13.0296 22.1351 12.9043 22.0688 12.7458C21.96 12.4763 22.0031 12.0983 22.2413 11.5614L14.2688 18.0531V20.3889H17.7712L25.2 14.3566C25.3925 14.1343 25.6844 13.8338 26.0756 13.4552C27.1256 12.4492 27.3638 12.1022 27.3638 11.5885C27.3638 11.1892 27.3206 10.9876 27.1838 10.9876V10.9896ZM28.9519 14.7695L28.3162 15.4246C27.96 15.7735 27.3244 16.2039 26.8894 16.388L26.8031 16.4268L26.7975 16.4365L26.7787 16.4559C26.7619 16.4694 26.7544 16.4714 26.7413 16.4772C26.568 16.5463 26.3915 16.6064 26.2125 16.6575C25.8154 16.7779 25.4067 16.8526 24.9937 16.8804C24.7985 16.8944 24.6024 16.8767 24.4125 16.828C24.2472 16.7912 24.1014 16.6916 24.0037 16.5489C23.9112 16.4055 23.8894 16.2149 23.9381 15.9771C23.9762 15.808 24.0362 15.645 24.1163 15.4925L18.1219 20.3889H26.0944L27.0469 19.2607C28.3556 17.6829 28.9519 16.5547 28.9519 15.5894V14.7695Z" fill="white"/>
</svg>
