<svg width="80" height="80" viewBox="0 0 80 80" fill="none" xmlns="http://www.w3.org/2000/svg">
<path d="M79.0328 27.5689L71.6775 20.2132C71.0841 19.6277 70.2928 19.2859 69.4598 19.255C68.6268 19.2242 67.8124 19.5065 67.1773 20.0465C66.1968 20.8811 64.9385 21.3169 63.6519 21.2675C62.3652 21.2182 61.144 20.6872 60.2304 19.7798C59.3235 18.8662 58.7929 17.6453 58.7435 16.359C58.6941 15.0726 59.1296 13.8146 59.9637 12.8342C60.5036 12.199 60.786 11.3846 60.7551 10.5516C60.7243 9.7185 60.3824 8.92723 59.797 8.33377L52.4351 0.969759C51.8129 0.348769 50.9698 0 50.0908 0C49.2118 0 48.3687 0.348769 47.7465 0.969759L36.0211 12.6942C35.2972 13.4207 34.7512 14.305 34.426 15.2777C34.3627 15.4648 34.2571 15.6347 34.1175 15.7743C33.9779 15.9139 33.808 16.0195 33.621 16.0828C32.6479 16.408 31.7636 16.9546 31.0376 17.6796L0.969708 47.749C0.34875 48.3712 0 49.2144 0 50.0934C0 50.9725 0.34875 51.8156 0.969708 52.4378L8.33333 59.7935C8.92676 60.3789 9.718 60.7208 10.551 60.7517C11.384 60.7825 12.1984 60.5001 12.8335 59.9602C13.8117 59.1188 15.0717 58.6781 16.361 58.7265C17.6503 58.775 18.8737 59.3089 19.7861 60.2212C20.6984 61.1336 21.2323 62.3571 21.2807 63.6465C21.3291 64.9359 20.8885 66.1959 20.0471 67.1742C19.5072 67.8093 19.2248 68.6237 19.2557 69.4568C19.2865 70.2898 19.6284 71.0811 20.2138 71.6746L27.5691 79.0302C28.1912 79.6512 29.0343 80 29.9133 80C30.7924 80 31.6355 79.6512 32.2576 79.0302L62.3255 48.9608C63.05 48.2351 63.5965 47.3514 63.9222 46.3789C63.9852 46.1913 64.0909 46.0208 64.2308 45.8808C64.3708 45.7409 64.5413 45.6352 64.7289 45.5722C65.7011 45.2469 66.5847 44.7009 67.3107 43.977L79.0344 32.251C79.6531 31.6288 80.0003 30.787 80 29.9096C79.9997 29.0321 79.6519 28.1905 79.0328 27.5689ZM40.9696 22.6267C40.722 22.8745 40.428 23.0709 40.1044 23.205C39.7808 23.3391 39.434 23.4081 39.0837 23.4081C38.7334 23.4081 38.3866 23.3391 38.063 23.205C37.7395 23.0709 37.4454 22.8745 37.1978 22.6267L35.2794 20.7082C34.7915 20.2056 34.5209 19.5311 34.5262 18.8305C34.5314 18.13 34.8121 17.4597 35.3076 16.9644C35.803 16.4692 36.4735 16.1887 37.174 16.1838C37.8745 16.1788 38.5488 16.4497 39.0512 16.9379L40.9696 18.8547C41.2173 19.1024 41.4138 19.3964 41.5479 19.72C41.6819 20.0436 41.7509 20.3905 41.7509 20.7407C41.7509 21.091 41.6819 21.4379 41.5479 21.7615C41.4138 22.0851 41.2173 22.3791 40.9696 22.6267ZM48.3032 29.9607C47.8032 30.4605 47.1251 30.7412 46.4182 30.7412C45.7112 30.7412 45.0332 30.4605 44.5331 29.9607L42.6997 28.1272C42.452 27.8796 42.2556 27.5855 42.1215 27.2619C41.9875 26.9383 41.9185 26.5915 41.9185 26.2412C41.9185 25.891 41.9875 25.5441 42.1215 25.2205C42.2556 24.8969 42.452 24.6029 42.6997 24.3552C43.1999 23.855 43.8782 23.574 44.5856 23.574C44.9358 23.574 45.2827 23.643 45.6062 23.7771C45.9298 23.9111 46.2238 24.1076 46.4715 24.3552L48.3049 26.1887C48.5535 26.4364 48.7507 26.7306 48.8854 27.0546C49.02 27.3786 49.0894 27.726 49.0895 28.0769C49.0897 28.4278 49.0206 28.7752 48.8863 29.0993C48.7519 29.4235 48.5549 29.7179 48.3066 29.9657L48.3032 29.9607ZM55.6369 37.2948C55.3892 37.5425 55.0952 37.739 54.7716 37.873C54.448 38.0071 54.1012 38.0761 53.7509 38.0761C53.4007 38.0761 53.0539 38.0071 52.7303 37.873C52.4067 37.739 52.1127 37.5425 51.865 37.2948L50.0316 35.4613C49.5437 34.9586 49.2731 34.2841 49.2784 33.5836C49.2837 32.883 49.5644 32.2127 50.0598 31.7174C50.5553 31.2222 51.2257 30.9418 51.9262 30.9368C52.6267 30.9318 53.301 31.2027 53.8035 31.6909L55.6369 33.5244C55.8861 33.7716 56.0841 34.0656 56.2194 34.3896C56.3548 34.7135 56.4249 35.0609 56.4257 35.412C56.4264 35.7631 56.3579 36.1109 56.224 36.4354C56.09 36.7599 55.8933 37.0548 55.6452 37.3031L55.6369 37.2948ZM63.0421 44.7188C62.7945 44.9665 62.5005 45.163 62.1769 45.297C61.8533 45.4311 61.5065 45.5001 61.1562 45.5001C60.806 45.5001 60.4592 45.4311 60.1356 45.297C59.812 45.163 59.518 44.9665 59.2703 44.7188L57.3636 42.8019C57.1107 42.555 56.9094 42.2603 56.7714 41.9349C56.6334 41.6095 56.5615 41.2599 56.5598 40.9064C56.5581 40.553 56.6267 40.2027 56.7616 39.876C56.8965 39.5493 57.0949 39.2526 57.3455 39.0033C57.596 38.754 57.8936 38.5569 58.2209 38.4237C58.5483 38.2904 58.8988 38.2235 59.2523 38.2269C59.6057 38.2303 59.9549 38.3039 60.2796 38.4435C60.6043 38.5831 60.8981 38.7858 61.1437 39.0399L63.0522 40.9551C63.2997 41.2028 63.4961 41.497 63.63 41.8206C63.7639 42.1443 63.8328 42.4912 63.8326 42.8414C63.8325 43.1917 63.7633 43.5385 63.6291 43.8621C63.4949 44.1856 63.2983 44.4796 63.0505 44.7271L63.0421 44.7188Z" fill="#00856F"/>
</svg>
