<svg width="40" height="43" viewBox="0 0 40 43" fill="none" xmlns="http://www.w3.org/2000/svg">
<path d="M30.4956 3.95191C36.1991 7.59417 39.9997 14.1159 39.9997 21.5555C39.9997 32.9747 31.0453 42.2319 19.9997 42.2319C17.6612 42.2349 15.3404 41.8125 13.1434 40.9842L12.9153 40.8963L13.2872 40.7726L13.7653 40.6107L14.0012 40.529L14.235 40.4476L14.6962 40.2831L15.1491 40.1177L15.5931 39.9513L16.0291 39.784L16.2441 39.6997L16.6672 39.5304C17.1141 39.3495 17.5467 39.1665 17.965 38.9815L18.2759 38.8422L18.6572 38.6675C18.8226 38.5903 18.9875 38.5119 19.1519 38.4323L19.3937 38.314L19.7497 38.1354L19.9244 38.0459L20.0969 37.9557L20.4359 37.7748C23.2816 36.2319 25.2147 34.5555 26.2412 32.7175C28.4162 28.8233 26.5166 24.6618 21.0641 20.4193L20.6203 20.0756L20.3509 19.8617L20.0894 19.6498L19.8353 19.4391L19.5894 19.2304L19.4694 19.1267L19.3509 19.0233L19.1203 18.8175L18.9525 18.6644L18.7891 18.5119L18.5778 18.3103L18.3741 18.11L18.1778 17.9117L18.0828 17.8131L17.9894 17.7146L17.8084 17.5191C15.6531 15.1504 15.1719 13.1228 16.1503 11.3705C16.6484 10.4788 17.5119 9.60204 18.7391 8.74817L18.8881 8.64576L19.1228 8.48972C19.2291 8.42058 19.3376 8.35144 19.4484 8.28231L19.6166 8.17892L19.8759 8.0245L20.1431 7.87072L20.3491 7.75571L20.5594 7.64102L20.8472 7.48853C21.0714 7.37173 21.2971 7.2581 21.5244 7.14769L21.7594 7.03462L22.0797 6.88472L22.2428 6.80976L22.5753 6.66115L22.7447 6.58685L23.0897 6.43856L23.2647 6.3649L23.6219 6.2179L23.8034 6.14457L24.1728 5.99854L24.55 5.85316L24.7416 5.78112L25.1312 5.6367L25.5287 5.49326L25.9347 5.35079L26.1406 5.27972L26.5584 5.13821L26.9847 4.99735L27.4187 4.85747L27.8609 4.71822L28.3116 4.57995L28.8859 4.40808L29.4731 4.2375L30.1944 4.03461L30.4956 3.95191ZM19.9997 0.879211C22.4319 0.879211 24.7628 1.32828 26.9187 2.14984L27.1491 2.23933L27.0031 2.2852L26.2906 2.51232L26.0575 2.58856L25.5972 2.7417L25.1453 2.89645L24.7019 3.05216L24.2669 3.20917L23.8403 3.36748L23.63 3.44695L23.1137 3.64725L22.6106 3.84982L22.2172 4.01297L22.0237 4.09503L21.6431 4.26044C17.7534 5.97399 15.2044 7.89559 13.9856 10.0782C11.8578 13.8882 13.7878 17.9953 19.2406 22.2366L19.6844 22.5806L19.9538 22.7945L20.2153 23.0068L20.3434 23.1124L20.5931 23.3224L20.775 23.4788L20.9531 23.6345L21.1831 23.8409L21.2956 23.9433L21.5141 24.1472C21.6332 24.2603 21.7489 24.3726 21.8609 24.4841L22.0266 24.6508L22.265 24.8996L22.4916 25.1455C24.6375 27.5307 25.0962 29.599 24.0766 31.4253C23.4166 32.607 22.1566 33.7701 20.2997 34.8992L20.1291 35.0019L19.8528 35.1638L19.5684 35.325C19.4052 35.416 19.241 35.5053 19.0759 35.5928L18.8212 35.7259L18.5078 35.8855L18.1862 36.0445L17.8566 36.2031L17.6887 36.2823L17.3466 36.4396L16.9966 36.5969L16.6381 36.7533L16.4556 36.8315L16.085 36.9869L15.8966 37.0644L15.7059 37.1419L15.3187 37.2964L14.9234 37.4501L14.52 37.6033L14.1081 37.7558L13.6884 37.9076L13.4753 37.9832L13.0431 38.1341L12.8237 38.209L12.3794 38.3589L11.9266 38.5079L11.3494 38.6933L10.7591 38.8778L10.2778 39.0241L9.60594 39.2241C3.84594 35.5944 0 29.0394 0 21.5555C0 10.1364 8.95406 0.879211 19.9997 0.879211Z" fill="white"/>
</svg>
